<svg width="484" height="587" viewBox="0 0 484 587" fill="none" xmlns="http://www.w3.org/2000/svg">
<g filter="url(#filter0_d_227_2728)">
<g filter="url(#filter1_d_227_2728)">
<path d="M42.0024 59C42.0024 47.402 51.4045 38 63.0024 38H421.002C432.6 38 442.002 47.402 442.002 59V408.542C442.002 425.839 422.262 435.719 408.416 425.352L50.4159 157.299C45.12 153.334 42.0024 147.105 42.0024 140.489V122.57C42.0024 117.441 43.8742 112.49 47.296 108.669C52.8879 102.426 60.9742 93.4999 61.5 93.4999C62.0182 93.4999 53.8665 84.9485 47.9432 78.8049C44.1414 74.8616 42.0024 69.6077 42.0024 64.1301V59Z" fill="#6D010C"/>
</g>
<g filter="url(#filter2_d_227_2728)">
<path d="M46.0024 61C46.0024 49.9543 54.9567 41 66.0024 41H419.002C430.048 41 439.002 49.9543 439.002 61V522C439.002 533.046 430.048 542 419.002 542H66.0024C54.9567 542 46.0024 533.046 46.0024 522V122.796C46.0024 117.55 48.0601 112.513 51.7581 108.791C57.9239 102.586 66.9033 93.6414 67.4315 93.6414C67.9563 93.6414 58.7728 84.8086 52.2621 78.6086C48.2731 74.8101 46.0024 69.551 46.0024 64.0428V61Z" fill="white"/>
</g>
<path fill-rule="evenodd" clip-rule="evenodd" d="M103.885 496.062C105.079 495.995 106.271 496 107.466 496C107.474 496 113.516 496 113.516 496C114.734 496 115.927 495.995 117.12 496.062C118.205 496.123 119.262 496.253 120.314 496.544C122.529 497.155 124.463 498.431 125.86 500.241C127.25 502.038 128.002 504.239 128.002 506.499C128.002 508.762 127.25 510.961 125.86 512.759C124.463 514.568 122.529 515.845 120.314 516.456C119.262 516.747 118.205 516.876 117.12 516.938C115.927 517.005 114.734 516.999 113.54 516.999C113.532 516.999 107.488 517 107.488 517C106.271 516.999 105.079 517.005 103.885 516.938C102.8 516.876 101.743 516.747 100.691 516.456C98.4767 515.845 96.5428 514.568 95.1449 512.759C93.7552 510.961 93.0023 508.762 93.0023 506.5C93.0023 504.239 93.7552 502.038 95.1449 500.241C96.5428 498.431 98.4767 497.155 100.691 496.544C101.743 496.253 102.8 496.123 103.885 496.062Z" fill="#6D010C"/>
<g filter="url(#filter3_dd_227_2728)">
<path fill-rule="evenodd" clip-rule="evenodd" d="M117.002 515C121.973 515 126.002 511.194 126.002 506.5C126.002 501.805 121.973 498 117.002 498C112.032 498 108.002 501.805 108.002 506.5C108.002 511.194 112.032 515 117.002 515Z" fill="white"/>
</g>
<path d="M137.016 511H135.985V503.18H137.016V511ZM145.068 511C145.01 510.885 144.964 510.681 144.928 510.388C144.466 510.867 143.915 511.107 143.274 511.107C142.701 511.107 142.23 510.946 141.861 510.624C141.496 510.298 141.313 509.886 141.313 509.389C141.313 508.783 141.543 508.314 142.001 507.981C142.463 507.645 143.111 507.476 143.945 507.476H144.912V507.02C144.912 506.673 144.808 506.397 144.6 506.193C144.393 505.985 144.087 505.881 143.682 505.881C143.328 505.881 143.03 505.971 142.79 506.15C142.55 506.329 142.431 506.545 142.431 506.8H141.432C141.432 506.51 141.534 506.23 141.738 505.962C141.945 505.69 142.225 505.475 142.576 505.317C142.93 505.16 143.319 505.081 143.741 505.081C144.411 505.081 144.935 505.249 145.315 505.586C145.694 505.919 145.891 506.379 145.906 506.966V509.641C145.906 510.175 145.974 510.599 146.11 510.914V511H145.068ZM143.419 510.243C143.73 510.243 144.026 510.162 144.305 510.001C144.584 509.84 144.787 509.63 144.912 509.372V508.18H144.133C142.916 508.18 142.307 508.536 142.307 509.249C142.307 509.56 142.411 509.804 142.619 509.979C142.826 510.155 143.093 510.243 143.419 510.243ZM149.794 510.296C150.149 510.296 150.459 510.189 150.724 509.974C150.988 509.759 151.135 509.491 151.164 509.168H152.104C152.086 509.501 151.971 509.818 151.76 510.119C151.549 510.42 151.266 510.66 150.911 510.839C150.561 511.018 150.188 511.107 149.794 511.107C149.003 511.107 148.373 510.844 147.904 510.318C147.438 509.788 147.205 509.064 147.205 508.148V507.981C147.205 507.416 147.309 506.912 147.517 506.472C147.725 506.032 148.022 505.69 148.409 505.446C148.799 505.203 149.259 505.081 149.789 505.081C150.441 505.081 150.981 505.276 151.411 505.666C151.844 506.057 152.075 506.563 152.104 507.186H151.164C151.135 506.81 150.992 506.502 150.734 506.263C150.48 506.019 150.165 505.897 149.789 505.897C149.284 505.897 148.892 506.08 148.613 506.445C148.337 506.807 148.199 507.331 148.199 508.019V508.207C148.199 508.877 148.337 509.392 148.613 509.754C148.888 510.115 149.282 510.296 149.794 510.296ZM155.552 510.296C155.907 510.296 156.216 510.189 156.481 509.974C156.746 509.759 156.893 509.491 156.922 509.168H157.862C157.844 509.501 157.729 509.818 157.518 510.119C157.307 510.42 157.024 510.66 156.669 510.839C156.318 511.018 155.946 511.107 155.552 511.107C154.761 511.107 154.131 510.844 153.661 510.318C153.196 509.788 152.963 509.064 152.963 508.148V507.981C152.963 507.416 153.067 506.912 153.275 506.472C153.482 506.032 153.78 505.69 154.166 505.446C154.557 505.203 155.017 505.081 155.547 505.081C156.198 505.081 156.739 505.276 157.169 505.666C157.602 506.057 157.833 506.563 157.862 507.186H156.922C156.893 506.81 156.75 506.502 156.492 506.263C156.238 506.019 155.923 505.897 155.547 505.897C155.042 505.897 154.65 506.08 154.37 506.445C154.095 506.807 153.957 507.331 153.957 508.019V508.207C153.957 508.877 154.095 509.392 154.37 509.754C154.646 510.115 155.04 510.296 155.552 510.296ZM161.391 511.107C160.603 511.107 159.962 510.849 159.468 510.334C158.974 509.815 158.726 509.122 158.726 508.255V508.073C158.726 507.496 158.836 506.982 159.054 506.531C159.276 506.076 159.584 505.722 159.978 505.468C160.375 505.21 160.805 505.081 161.267 505.081C162.023 505.081 162.61 505.33 163.029 505.828C163.448 506.325 163.657 507.038 163.657 507.965V508.379H159.72C159.734 508.952 159.901 509.415 160.22 509.77C160.542 510.121 160.95 510.296 161.444 510.296C161.795 510.296 162.092 510.225 162.336 510.081C162.579 509.938 162.792 509.748 162.975 509.512L163.582 509.985C163.095 510.733 162.364 511.107 161.391 511.107ZM161.267 505.897C160.866 505.897 160.529 506.044 160.257 506.338C159.985 506.628 159.817 507.036 159.752 507.562H162.663V507.487C162.635 506.982 162.499 506.592 162.255 506.316C162.012 506.037 161.682 505.897 161.267 505.897ZM169.721 508.159C169.721 509.043 169.519 509.756 169.114 510.296C168.71 510.837 168.162 511.107 167.471 511.107C166.765 511.107 166.21 510.884 165.806 510.436V513.234H164.812V505.188H165.72L165.768 505.833C166.173 505.332 166.735 505.081 167.454 505.081C168.153 505.081 168.704 505.344 169.109 505.87C169.517 506.397 169.721 507.129 169.721 508.067V508.159ZM168.727 508.046C168.727 507.391 168.588 506.873 168.308 506.494C168.029 506.114 167.646 505.924 167.159 505.924C166.557 505.924 166.106 506.191 165.806 506.724V509.501C166.103 510.031 166.557 510.296 167.17 510.296C167.646 510.296 168.024 510.108 168.303 509.732C168.586 509.353 168.727 508.791 168.727 508.046ZM172.337 503.781V505.188H173.422V505.956H172.337V509.56C172.337 509.793 172.385 509.969 172.482 510.087C172.578 510.201 172.743 510.259 172.976 510.259C173.091 510.259 173.248 510.237 173.449 510.194V511C173.187 511.071 172.933 511.107 172.686 511.107C172.242 511.107 171.907 510.973 171.682 510.704C171.456 510.436 171.343 510.055 171.343 509.56V505.956H170.285V505.188H171.343V503.781H172.337ZM178.664 503.781V505.188H179.749V505.956H178.664V509.56C178.664 509.793 178.712 509.969 178.809 510.087C178.906 510.201 179.07 510.259 179.303 510.259C179.418 510.259 179.575 510.237 179.776 510.194V511C179.514 511.071 179.26 511.107 179.013 511.107C178.569 511.107 178.234 510.973 178.009 510.704C177.783 510.436 177.67 510.055 177.67 509.56V505.956H176.612V505.188H177.67V503.781H178.664ZM181.908 505.892C182.349 505.351 182.921 505.081 183.627 505.081C184.855 505.081 185.474 505.774 185.485 507.16V511H184.492V507.154C184.488 506.735 184.391 506.425 184.202 506.225C184.015 506.024 183.724 505.924 183.326 505.924C183.004 505.924 182.721 506.01 182.477 506.182C182.234 506.354 182.044 506.579 181.908 506.859V511H180.914V502.75H181.908V505.892ZM189.385 511.107C188.597 511.107 187.956 510.849 187.462 510.334C186.968 509.815 186.721 509.122 186.721 508.255V508.073C186.721 507.496 186.83 506.982 187.048 506.531C187.27 506.076 187.578 505.722 187.972 505.468C188.37 505.21 188.799 505.081 189.261 505.081C190.017 505.081 190.604 505.33 191.023 505.828C191.442 506.325 191.651 507.038 191.651 507.965V508.379H187.714C187.729 508.952 187.895 509.415 188.214 509.77C188.536 510.121 188.944 510.296 189.438 510.296C189.789 510.296 190.086 510.225 190.33 510.081C190.573 509.938 190.786 509.748 190.969 509.512L191.576 509.985C191.089 510.733 190.359 511.107 189.385 511.107ZM189.261 505.897C188.86 505.897 188.523 506.044 188.251 506.338C187.979 506.628 187.811 507.036 187.746 507.562H190.658V507.487C190.629 506.982 190.493 506.592 190.249 506.316C190.006 506.037 189.676 505.897 189.261 505.897ZM196.883 503.781V505.188H197.968V505.956H196.883V509.56C196.883 509.793 196.931 509.969 197.028 510.087C197.124 510.201 197.289 510.259 197.522 510.259C197.636 510.259 197.794 510.237 197.995 510.194V511C197.733 511.071 197.479 511.107 197.232 511.107C196.788 511.107 196.453 510.973 196.227 510.704C196.002 510.436 195.889 510.055 195.889 509.56V505.956H194.831V505.188H195.889V503.781H196.883ZM201.545 511.107C200.757 511.107 200.116 510.849 199.622 510.334C199.128 509.815 198.881 509.122 198.881 508.255V508.073C198.881 507.496 198.99 506.982 199.208 506.531C199.43 506.076 199.738 505.722 200.132 505.468C200.53 505.21 200.959 505.081 201.421 505.081C202.177 505.081 202.764 505.33 203.183 505.828C203.602 506.325 203.811 507.038 203.811 507.965V508.379H199.874C199.889 508.952 200.055 509.415 200.374 509.77C200.696 510.121 201.104 510.296 201.599 510.296C201.949 510.296 202.247 510.225 202.49 510.081C202.734 509.938 202.947 509.748 203.129 509.512L203.736 509.985C203.249 510.733 202.519 511.107 201.545 511.107ZM201.421 505.897C201.02 505.897 200.684 506.044 200.411 506.338C200.139 506.628 199.971 507.036 199.907 507.562H202.818V507.487C202.789 506.982 202.653 506.592 202.41 506.316C202.166 506.037 201.837 505.897 201.421 505.897ZM207.775 506.08C207.625 506.055 207.462 506.042 207.286 506.042C206.635 506.042 206.193 506.32 205.96 506.875V511H204.966V505.188H205.933L205.949 505.86C206.275 505.341 206.737 505.081 207.335 505.081C207.528 505.081 207.675 505.106 207.775 505.156V506.08ZM209.628 505.188L209.655 505.833C210.081 505.332 210.656 505.081 211.379 505.081C212.192 505.081 212.745 505.392 213.039 506.016C213.232 505.736 213.483 505.511 213.791 505.339C214.102 505.167 214.469 505.081 214.892 505.081C216.167 505.081 216.815 505.756 216.836 507.106V511H215.843V507.165C215.843 506.75 215.748 506.44 215.558 506.236C215.368 506.028 215.05 505.924 214.602 505.924C214.233 505.924 213.927 506.035 213.683 506.257C213.44 506.476 213.299 506.771 213.259 507.143V511H212.26V507.192C212.26 506.347 211.847 505.924 211.019 505.924C210.368 505.924 209.922 506.202 209.682 506.757V511H208.688V505.188H209.628ZM221.724 509.458C221.724 509.19 221.622 508.982 221.418 508.835C221.217 508.685 220.865 508.556 220.36 508.449C219.858 508.341 219.459 508.212 219.162 508.062C218.868 507.911 218.65 507.732 218.507 507.525C218.367 507.317 218.297 507.07 218.297 506.784C218.297 506.307 218.498 505.905 218.899 505.575C219.303 505.246 219.819 505.081 220.446 505.081C221.105 505.081 221.638 505.251 222.046 505.591C222.458 505.931 222.664 506.366 222.664 506.896H221.665C221.665 506.624 221.549 506.39 221.316 506.193C221.087 505.996 220.797 505.897 220.446 505.897C220.084 505.897 219.801 505.976 219.597 506.134C219.393 506.291 219.291 506.497 219.291 506.751C219.291 506.991 219.386 507.172 219.576 507.294C219.765 507.416 220.107 507.532 220.601 507.643C221.099 507.754 221.502 507.886 221.81 508.04C222.118 508.194 222.345 508.381 222.492 508.599C222.642 508.814 222.718 509.077 222.718 509.389C222.718 509.908 222.51 510.325 222.095 510.64C221.679 510.952 221.14 511.107 220.478 511.107C220.012 511.107 219.601 511.025 219.243 510.86C218.884 510.696 218.603 510.466 218.399 510.173C218.199 509.876 218.099 509.555 218.099 509.211H219.092C219.11 509.544 219.243 509.809 219.49 510.006C219.74 510.2 220.07 510.296 220.478 510.296C220.854 510.296 221.155 510.221 221.38 510.071C221.609 509.917 221.724 509.713 221.724 509.458ZM230.328 511C230.271 510.885 230.225 510.681 230.189 510.388C229.727 510.867 229.175 511.107 228.535 511.107C227.962 511.107 227.491 510.946 227.122 510.624C226.757 510.298 226.574 509.886 226.574 509.389C226.574 508.783 226.803 508.314 227.262 507.981C227.724 507.645 228.372 507.476 229.206 507.476H230.173V507.02C230.173 506.673 230.069 506.397 229.861 506.193C229.654 505.985 229.347 505.881 228.943 505.881C228.588 505.881 228.291 505.971 228.051 506.15C227.811 506.329 227.691 506.545 227.691 506.8H226.692C226.692 506.51 226.794 506.23 226.998 505.962C227.206 505.69 227.485 505.475 227.836 505.317C228.191 505.16 228.579 505.081 229.002 505.081C229.671 505.081 230.196 505.249 230.576 505.586C230.955 505.919 231.152 506.379 231.166 506.966V509.641C231.166 510.175 231.234 510.599 231.37 510.914V511H230.328ZM228.68 510.243C228.991 510.243 229.286 510.162 229.566 510.001C229.845 509.84 230.047 509.63 230.173 509.372V508.18H229.394C228.176 508.18 227.568 508.536 227.568 509.249C227.568 509.56 227.672 509.804 227.879 509.979C228.087 510.155 228.354 510.243 228.68 510.243ZM233.664 505.188L233.696 505.919C234.14 505.36 234.72 505.081 235.436 505.081C236.665 505.081 237.284 505.774 237.295 507.16V511H236.301V507.154C236.298 506.735 236.201 506.425 236.011 506.225C235.825 506.024 235.533 505.924 235.136 505.924C234.813 505.924 234.53 506.01 234.287 506.182C234.043 506.354 233.854 506.579 233.718 506.859V511H232.724V505.188H233.664ZM238.552 508.046C238.552 507.154 238.763 506.438 239.185 505.897C239.608 505.353 240.161 505.081 240.845 505.081C241.525 505.081 242.064 505.314 242.462 505.779V502.75H243.455V511H242.542L242.494 510.377C242.097 510.864 241.543 511.107 240.834 511.107C240.161 511.107 239.612 510.832 239.185 510.28C238.763 509.729 238.552 509.009 238.552 508.121V508.046ZM239.545 508.159C239.545 508.817 239.681 509.333 239.953 509.705C240.226 510.078 240.602 510.264 241.081 510.264C241.712 510.264 242.172 509.981 242.462 509.415V506.746C242.165 506.198 241.708 505.924 241.092 505.924C240.605 505.924 240.226 506.112 239.953 506.488C239.681 506.864 239.545 507.421 239.545 508.159ZM250.062 510.296C250.416 510.296 250.726 510.189 250.991 509.974C251.256 509.759 251.403 509.491 251.432 509.168H252.371C252.354 509.501 252.239 509.818 252.028 510.119C251.816 510.42 251.534 510.66 251.179 510.839C250.828 511.018 250.456 511.107 250.062 511.107C249.271 511.107 248.64 510.844 248.171 510.318C247.706 509.788 247.473 509.064 247.473 508.148V507.981C247.473 507.416 247.577 506.912 247.785 506.472C247.992 506.032 248.289 505.69 248.676 505.446C249.066 505.203 249.527 505.081 250.057 505.081C250.708 505.081 251.249 505.276 251.679 505.666C252.112 506.057 252.343 506.563 252.371 507.186H251.432C251.403 506.81 251.26 506.502 251.002 506.263C250.748 506.019 250.432 505.897 250.057 505.897C249.552 505.897 249.16 506.08 248.88 506.445C248.605 506.807 248.467 507.331 248.467 508.019V508.207C248.467 508.877 248.605 509.392 248.88 509.754C249.156 510.115 249.55 510.296 250.062 510.296ZM253.225 508.04C253.225 507.471 253.336 506.959 253.558 506.504C253.784 506.05 254.096 505.699 254.493 505.452C254.894 505.204 255.351 505.081 255.863 505.081C256.654 505.081 257.293 505.355 257.78 505.903C258.271 506.451 258.516 507.179 258.516 508.089V508.159C258.516 508.724 258.407 509.233 258.188 509.684C257.974 510.132 257.664 510.481 257.259 510.731C256.858 510.982 256.396 511.107 255.873 511.107C255.086 511.107 254.446 510.833 253.956 510.286C253.469 509.738 253.225 509.013 253.225 508.11V508.04ZM254.224 508.159C254.224 508.803 254.373 509.321 254.67 509.711C254.971 510.101 255.372 510.296 255.873 510.296C256.378 510.296 256.779 510.099 257.077 509.705C257.374 509.308 257.522 508.753 257.522 508.04C257.522 507.403 257.37 506.887 257.066 506.494C256.765 506.096 256.364 505.897 255.863 505.897C255.372 505.897 254.976 506.092 254.676 506.483C254.375 506.873 254.224 507.432 254.224 508.159ZM260.702 505.188L260.734 505.919C261.178 505.36 261.758 505.081 262.474 505.081C263.703 505.081 264.322 505.774 264.333 507.16V511H263.339V507.154C263.336 506.735 263.239 506.425 263.049 506.225C262.863 506.024 262.571 505.924 262.174 505.924C261.851 505.924 261.569 506.01 261.325 506.182C261.082 506.354 260.892 506.579 260.756 506.859V511H259.762V505.188H260.702ZM265.59 508.046C265.59 507.154 265.801 506.438 266.224 505.897C266.646 505.353 267.199 505.081 267.883 505.081C268.564 505.081 269.102 505.314 269.5 505.779V502.75H270.494V511H269.58L269.532 510.377C269.135 510.864 268.581 511.107 267.872 511.107C267.199 511.107 266.65 510.832 266.224 510.28C265.801 509.729 265.59 509.009 265.59 508.121V508.046ZM266.583 508.159C266.583 508.817 266.719 509.333 266.992 509.705C267.264 510.078 267.64 510.264 268.12 510.264C268.75 510.264 269.21 509.981 269.5 509.415V506.746C269.203 506.198 268.746 505.924 268.13 505.924C267.643 505.924 267.264 506.112 266.992 506.488C266.719 506.864 266.583 507.421 266.583 508.159ZM273.12 511H272.126V505.188H273.12V511ZM272.046 503.647C272.046 503.486 272.094 503.35 272.191 503.239C272.291 503.128 272.438 503.072 272.631 503.072C272.825 503.072 272.971 503.128 273.072 503.239C273.172 503.35 273.222 503.486 273.222 503.647C273.222 503.808 273.172 503.942 273.072 504.05C272.971 504.157 272.825 504.211 272.631 504.211C272.438 504.211 272.291 504.157 272.191 504.05C272.094 503.942 272.046 503.808 272.046 503.647ZM276.063 503.781V505.188H277.148V505.956H276.063V509.56C276.063 509.793 276.112 509.969 276.208 510.087C276.305 510.201 276.47 510.259 276.703 510.259C276.817 510.259 276.975 510.237 277.175 510.194V511C276.914 511.071 276.66 511.107 276.412 511.107C275.968 511.107 275.634 510.973 275.408 510.704C275.182 510.436 275.07 510.055 275.07 509.56V505.956H274.012V505.188H275.07V503.781H276.063ZM279.393 511H278.4V505.188H279.393V511ZM278.319 503.647C278.319 503.486 278.368 503.35 278.464 503.239C278.564 503.128 278.711 503.072 278.905 503.072C279.098 503.072 279.245 503.128 279.345 503.239C279.445 503.35 279.495 503.486 279.495 503.647C279.495 503.808 279.445 503.942 279.345 504.05C279.245 504.157 279.098 504.211 278.905 504.211C278.711 504.211 278.564 504.157 278.464 504.05C278.368 503.942 278.319 503.808 278.319 503.647ZM280.725 508.04C280.725 507.471 280.836 506.959 281.058 506.504C281.284 506.05 281.596 505.699 281.993 505.452C282.394 505.204 282.851 505.081 283.363 505.081C284.154 505.081 284.793 505.355 285.28 505.903C285.771 506.451 286.016 507.179 286.016 508.089V508.159C286.016 508.724 285.907 509.233 285.688 509.684C285.474 510.132 285.164 510.481 284.759 510.731C284.358 510.982 283.896 511.107 283.373 511.107C282.586 511.107 281.946 510.833 281.456 510.286C280.969 509.738 280.725 509.013 280.725 508.11V508.04ZM281.724 508.159C281.724 508.803 281.873 509.321 282.17 509.711C282.471 510.101 282.872 510.296 283.373 510.296C283.878 510.296 284.279 510.099 284.577 509.705C284.874 509.308 285.022 508.753 285.022 508.04C285.022 507.403 284.87 506.887 284.566 506.494C284.265 506.096 283.864 505.897 283.363 505.897C282.872 505.897 282.476 506.092 282.176 506.483C281.875 506.873 281.724 507.432 281.724 508.159ZM288.202 505.188L288.234 505.919C288.678 505.36 289.258 505.081 289.974 505.081C291.203 505.081 291.822 505.774 291.833 507.16V511H290.839V507.154C290.836 506.735 290.739 506.425 290.549 506.225C290.363 506.024 290.071 505.924 289.674 505.924C289.351 505.924 289.069 506.01 288.825 506.182C288.582 506.354 288.392 506.579 288.256 506.859V511H287.262V505.188H288.202ZM296.715 509.458C296.715 509.19 296.613 508.982 296.409 508.835C296.209 508.685 295.856 508.556 295.351 508.449C294.85 508.341 294.45 508.212 294.153 508.062C293.86 507.911 293.641 507.732 293.498 507.525C293.358 507.317 293.288 507.07 293.288 506.784C293.288 506.307 293.489 505.905 293.89 505.575C294.295 505.246 294.81 505.081 295.437 505.081C296.096 505.081 296.629 505.251 297.037 505.591C297.449 505.931 297.655 506.366 297.655 506.896H296.656C296.656 506.624 296.54 506.39 296.307 506.193C296.078 505.996 295.788 505.897 295.437 505.897C295.075 505.897 294.792 505.976 294.588 506.134C294.384 506.291 294.282 506.497 294.282 506.751C294.282 506.991 294.377 507.172 294.567 507.294C294.757 507.416 295.099 507.532 295.593 507.643C296.09 507.754 296.493 507.886 296.801 508.04C297.109 508.194 297.336 508.381 297.483 508.599C297.634 508.814 297.709 509.077 297.709 509.389C297.709 509.908 297.501 510.325 297.086 510.64C296.67 510.952 296.132 511.107 295.469 511.107C295.004 511.107 294.592 511.025 294.234 510.86C293.876 510.696 293.595 510.466 293.391 510.173C293.19 509.876 293.09 509.555 293.09 509.211H294.083C294.101 509.544 294.234 509.809 294.481 510.006C294.731 510.2 295.061 510.296 295.469 510.296C295.845 510.296 296.146 510.221 296.371 510.071C296.601 509.917 296.715 509.713 296.715 509.458ZM301.469 508.04C301.469 507.471 301.58 506.959 301.802 506.504C302.027 506.05 302.339 505.699 302.736 505.452C303.137 505.204 303.594 505.081 304.106 505.081C304.897 505.081 305.536 505.355 306.023 505.903C306.514 506.451 306.759 507.179 306.759 508.089V508.159C306.759 508.724 306.65 509.233 306.432 509.684C306.217 510.132 305.907 510.481 305.502 510.731C305.101 510.982 304.639 511.107 304.117 511.107C303.329 511.107 302.69 510.833 302.199 510.286C301.712 509.738 301.469 509.013 301.469 508.11V508.04ZM302.468 508.159C302.468 508.803 302.616 509.321 302.913 509.711C303.214 510.101 303.615 510.296 304.117 510.296C304.621 510.296 305.023 510.099 305.32 509.705C305.617 509.308 305.766 508.753 305.766 508.04C305.766 507.403 305.613 506.887 305.309 506.494C305.008 506.096 304.607 505.897 304.106 505.897C303.615 505.897 303.22 506.092 302.919 506.483C302.618 506.873 302.468 507.432 302.468 508.159ZM308.494 511V505.956H307.576V505.188H308.494V504.592C308.494 503.969 308.661 503.488 308.994 503.147C309.327 502.807 309.797 502.637 310.406 502.637C310.635 502.637 310.863 502.668 311.088 502.728L311.035 503.534C310.866 503.502 310.687 503.486 310.497 503.486C310.175 503.486 309.926 503.581 309.751 503.77C309.575 503.957 309.488 504.225 309.488 504.576V505.188H310.728V505.956H309.488V511H308.494ZM315.906 503.781V505.188H316.991V505.956H315.906V509.56C315.906 509.793 315.954 509.969 316.051 510.087C316.148 510.201 316.313 510.259 316.545 510.259C316.66 510.259 316.817 510.237 317.018 510.194V511C316.757 511.071 316.502 511.107 316.255 511.107C315.811 511.107 315.476 510.973 315.251 510.704C315.025 510.436 314.912 510.055 314.912 509.56V505.956H313.854V505.188H314.912V503.781H315.906ZM319.15 505.892C319.591 505.351 320.164 505.081 320.869 505.081C322.097 505.081 322.717 505.774 322.727 507.16V511H321.734V507.154C321.73 506.735 321.634 506.425 321.444 506.225C321.258 506.024 320.966 505.924 320.568 505.924C320.246 505.924 319.963 506.01 319.72 506.182C319.476 506.354 319.286 506.579 319.15 506.859V511H318.157V502.75H319.15V505.892ZM326.627 511.107C325.839 511.107 325.198 510.849 324.704 510.334C324.21 509.815 323.963 509.122 323.963 508.255V508.073C323.963 507.496 324.072 506.982 324.29 506.531C324.512 506.076 324.82 505.722 325.214 505.468C325.612 505.21 326.041 505.081 326.503 505.081C327.259 505.081 327.846 505.33 328.265 505.828C328.684 506.325 328.893 507.038 328.893 507.965V508.379H324.956C324.971 508.952 325.137 509.415 325.456 509.77C325.778 510.121 326.186 510.296 326.681 510.296C327.031 510.296 327.329 510.225 327.572 510.081C327.816 509.938 328.029 509.748 328.211 509.512L328.818 509.985C328.331 510.733 327.601 511.107 326.627 511.107ZM326.503 505.897C326.102 505.897 325.766 506.044 325.494 506.338C325.221 506.628 325.053 507.036 324.989 507.562H327.9V507.487C327.871 506.982 327.735 506.592 327.492 506.316C327.248 506.037 326.919 505.897 326.503 505.897ZM333.964 507.938V511H332.932V503.18H335.817C336.673 503.18 337.342 503.398 337.826 503.835C338.313 504.272 338.556 504.85 338.556 505.57C338.556 506.329 338.318 506.914 337.842 507.326C337.369 507.734 336.69 507.938 335.806 507.938H333.964ZM333.964 507.095H335.817C336.368 507.095 336.791 506.966 337.084 506.708C337.378 506.447 337.525 506.071 337.525 505.58C337.525 505.115 337.378 504.743 337.084 504.463C336.791 504.184 336.388 504.039 335.876 504.028H333.964V507.095ZM342.525 506.08C342.375 506.055 342.212 506.042 342.036 506.042C341.385 506.042 340.943 506.32 340.71 506.875V511H339.716V505.188H340.683L340.699 505.86C341.025 505.341 341.487 505.081 342.085 505.081C342.278 505.081 342.425 505.106 342.525 505.156V506.08ZM344.523 511H343.53V505.188H344.523V511ZM343.449 503.647C343.449 503.486 343.497 503.35 343.594 503.239C343.694 503.128 343.841 503.072 344.035 503.072C344.228 503.072 344.375 503.128 344.475 503.239C344.575 503.35 344.625 503.486 344.625 503.647C344.625 503.808 344.575 503.942 344.475 504.05C344.375 504.157 344.228 504.211 344.035 504.211C343.841 504.211 343.694 504.157 343.594 504.05C343.497 503.942 343.449 503.808 343.449 503.647ZM348.036 509.652L349.475 505.188H350.491L348.407 511H347.649L345.544 505.188H346.559L348.036 509.652ZM354.949 511C354.891 510.885 354.845 510.681 354.809 510.388C354.347 510.867 353.796 511.107 353.155 511.107C352.582 511.107 352.111 510.946 351.742 510.624C351.377 510.298 351.194 509.886 351.194 509.389C351.194 508.783 351.423 508.314 351.882 507.981C352.344 507.645 352.992 507.476 353.826 507.476H354.793V507.02C354.793 506.673 354.689 506.397 354.481 506.193C354.274 505.985 353.967 505.881 353.563 505.881C353.208 505.881 352.911 505.971 352.671 506.15C352.431 506.329 352.311 506.545 352.311 506.8H351.312C351.312 506.51 351.414 506.23 351.619 505.962C351.826 505.69 352.106 505.475 352.456 505.317C352.811 505.16 353.199 505.081 353.622 505.081C354.292 505.081 354.816 505.249 355.196 505.586C355.575 505.919 355.772 506.379 355.786 506.966V509.641C355.786 510.175 355.855 510.599 355.991 510.914V511H354.949ZM353.3 510.243C353.611 510.243 353.907 510.162 354.186 510.001C354.465 509.84 354.668 509.63 354.793 509.372V508.18H354.014C352.797 508.18 352.188 508.536 352.188 509.249C352.188 509.56 352.292 509.804 352.499 509.979C352.707 510.155 352.974 510.243 353.3 510.243ZM359.675 510.296C360.03 510.296 360.339 510.189 360.604 509.974C360.869 509.759 361.016 509.491 361.045 509.168H361.985C361.967 509.501 361.852 509.818 361.641 510.119C361.43 510.42 361.147 510.66 360.792 510.839C360.441 511.018 360.069 511.107 359.675 511.107C358.884 511.107 358.254 510.844 357.785 510.318C357.319 509.788 357.086 509.064 357.086 508.148V507.981C357.086 507.416 357.19 506.912 357.398 506.472C357.606 506.032 357.903 505.69 358.289 505.446C358.68 505.203 359.14 505.081 359.67 505.081C360.321 505.081 360.862 505.276 361.292 505.666C361.725 506.057 361.956 506.563 361.985 507.186H361.045C361.016 506.81 360.873 506.502 360.615 506.263C360.361 506.019 360.046 505.897 359.67 505.897C359.165 505.897 358.773 506.08 358.494 506.445C358.218 506.807 358.08 507.331 358.08 508.019V508.207C358.08 508.877 358.218 509.392 358.494 509.754C358.769 510.115 359.163 510.296 359.675 510.296ZM365.003 509.544L366.357 505.188H367.42L365.084 511.897C364.722 512.864 364.148 513.347 363.36 513.347L363.172 513.331L362.801 513.261V512.455L363.07 512.477C363.406 512.477 363.668 512.409 363.854 512.273C364.044 512.137 364.199 511.888 364.321 511.526L364.541 510.935L362.468 505.188H363.553L365.003 509.544ZM372.227 507.938V511H371.196V503.18H374.08C374.936 503.18 375.606 503.398 376.089 503.835C376.576 504.272 376.82 504.85 376.82 505.57C376.82 506.329 376.582 506.914 376.105 507.326C375.633 507.734 374.954 507.938 374.07 507.938H372.227ZM372.227 507.095H374.08C374.632 507.095 375.054 506.966 375.348 506.708C375.642 506.447 375.788 506.071 375.788 505.58C375.788 505.115 375.642 504.743 375.348 504.463C375.054 504.184 374.652 504.039 374.14 504.028H372.227V507.095ZM377.641 508.04C377.641 507.471 377.752 506.959 377.974 506.504C378.2 506.05 378.512 505.699 378.909 505.452C379.31 505.204 379.767 505.081 380.279 505.081C381.07 505.081 381.709 505.355 382.196 505.903C382.687 506.451 382.932 507.179 382.932 508.089V508.159C382.932 508.724 382.823 509.233 382.604 509.684C382.39 510.132 382.08 510.481 381.675 510.731C381.274 510.982 380.812 511.107 380.289 511.107C379.502 511.107 378.863 510.833 378.372 510.286C377.885 509.738 377.641 509.013 377.641 508.11V508.04ZM378.641 508.159C378.641 508.803 378.789 509.321 379.086 509.711C379.387 510.101 379.788 510.296 380.289 510.296C380.794 510.296 381.195 510.099 381.493 509.705C381.79 509.308 381.938 508.753 381.938 508.04C381.938 507.403 381.786 506.887 381.482 506.494C381.181 506.096 380.78 505.897 380.279 505.897C379.788 505.897 379.392 506.092 379.092 506.483C378.791 506.873 378.641 507.432 378.641 508.159ZM385.258 511H384.264V502.75H385.258V511ZM387.932 511H386.939V505.188H387.932V511ZM386.858 503.647C386.858 503.486 386.907 503.35 387.003 503.239C387.104 503.128 387.25 503.072 387.444 503.072C387.637 503.072 387.784 503.128 387.884 503.239C387.984 503.35 388.035 503.486 388.035 503.647C388.035 503.808 387.984 503.942 387.884 504.05C387.784 504.157 387.637 504.211 387.444 504.211C387.25 504.211 387.104 504.157 387.003 504.05C386.907 503.942 386.858 503.808 386.858 503.647ZM391.859 510.296C392.213 510.296 392.523 510.189 392.788 509.974C393.053 509.759 393.2 509.491 393.228 509.168H394.168C394.15 509.501 394.036 509.818 393.825 510.119C393.613 510.42 393.33 510.66 392.976 510.839C392.625 511.018 392.253 511.107 391.859 511.107C391.067 511.107 390.437 510.844 389.968 510.318C389.503 509.788 389.27 509.064 389.27 508.148V507.981C389.27 507.416 389.374 506.912 389.581 506.472C389.789 506.032 390.086 505.69 390.473 505.446C390.863 505.203 391.323 505.081 391.853 505.081C392.505 505.081 393.046 505.276 393.475 505.666C393.909 506.057 394.14 506.563 394.168 507.186H393.228C393.2 506.81 393.057 506.502 392.799 506.263C392.544 506.019 392.229 505.897 391.853 505.897C391.349 505.897 390.956 506.08 390.677 506.445C390.401 506.807 390.264 507.331 390.264 508.019V508.207C390.264 508.877 390.401 509.392 390.677 509.754C390.953 510.115 391.347 510.296 391.859 510.296ZM397.187 509.544L398.54 505.188H399.604L397.267 511.897C396.906 512.864 396.331 513.347 395.543 513.347L395.355 513.331L394.985 513.261V512.455L395.253 512.477C395.59 512.477 395.851 512.409 396.037 512.273C396.227 512.137 396.383 511.888 396.505 511.526L396.725 510.935L394.652 505.188H395.737L397.187 509.544Z" fill="#737373"/>
</g>
<defs>
<filter id="filter0_d_227_2728" x="25.5354" y="21.533" width="432.934" height="536.934" filterUnits="userSpaceOnUse" color-interpolation-filters="sRGB">
<feFlood flood-opacity="0" result="BackgroundImageFix"/>
<feColorMatrix in="SourceAlpha" type="matrix" values="0 0 0 0 0 0 0 0 0 0 0 0 0 0 0 0 0 0 127 0" result="hardAlpha"/>
<feOffset/>
<feGaussianBlur stdDeviation="8.23352"/>
<feColorMatrix type="matrix" values="0 0 0 0 0.147465 0 0 0 0 0.231725 0 0 0 0 0.258333 0 0 0 0.2 0"/>
<feBlend mode="normal" in2="BackgroundImageFix" result="effect1_dropShadow_227_2728"/>
<feBlend mode="normal" in="SourceGraphic" in2="effect1_dropShadow_227_2728" result="shape"/>
</filter>
<filter id="filter1_d_227_2728" x="0.83482" y="0.125788" width="482.335" height="473.915" filterUnits="userSpaceOnUse" color-interpolation-filters="sRGB">
<feFlood flood-opacity="0" result="BackgroundImageFix"/>
<feColorMatrix in="SourceAlpha" type="matrix" values="0 0 0 0 0 0 0 0 0 0 0 0 0 0 0 0 0 0 127 0" result="hardAlpha"/>
<feOffset dy="3.29341"/>
<feGaussianBlur stdDeviation="20.5838"/>
<feColorMatrix type="matrix" values="0 0 0 0 0.33651 0 0 0 0 0.356132 0 0 0 0 0.379167 0 0 0 0.1 0"/>
<feBlend mode="normal" in2="BackgroundImageFix" result="effect1_dropShadow_227_2728"/>
<feBlend mode="normal" in="SourceGraphic" in2="effect1_dropShadow_227_2728" result="shape"/>
</filter>
<filter id="filter2_d_227_2728" x="4.83482" y="3.12579" width="475.335" height="583.335" filterUnits="userSpaceOnUse" color-interpolation-filters="sRGB">
<feFlood flood-opacity="0" result="BackgroundImageFix"/>
<feColorMatrix in="SourceAlpha" type="matrix" values="0 0 0 0 0 0 0 0 0 0 0 0 0 0 0 0 0 0 127 0" result="hardAlpha"/>
<feOffset dy="3.29341"/>
<feGaussianBlur stdDeviation="20.5838"/>
<feColorMatrix type="matrix" values="0 0 0 0 0.33651 0 0 0 0 0.356132 0 0 0 0 0.379167 0 0 0 0.1 0"/>
<feBlend mode="normal" in2="BackgroundImageFix" result="effect1_dropShadow_227_2728"/>
<feBlend mode="normal" in="SourceGraphic" in2="effect1_dropShadow_227_2728" result="shape"/>
</filter>
<filter id="filter3_dd_227_2728" x="100.002" y="493" width="34" height="33" filterUnits="userSpaceOnUse" color-interpolation-filters="sRGB">
<feFlood flood-opacity="0" result="BackgroundImageFix"/>
<feColorMatrix in="SourceAlpha" type="matrix" values="0 0 0 0 0 0 0 0 0 0 0 0 0 0 0 0 0 0 127 0" result="hardAlpha"/>
<feOffset dy="3"/>
<feGaussianBlur stdDeviation="0.5"/>
<feColorMatrix type="matrix" values="0 0 0 0 0 0 0 0 0 0 0 0 0 0 0 0 0 0 0.06 0"/>
<feBlend mode="normal" in2="BackgroundImageFix" result="effect1_dropShadow_227_2728"/>
<feColorMatrix in="SourceAlpha" type="matrix" values="0 0 0 0 0 0 0 0 0 0 0 0 0 0 0 0 0 0 127 0" result="hardAlpha"/>
<feOffset dy="3"/>
<feGaussianBlur stdDeviation="4"/>
<feColorMatrix type="matrix" values="0 0 0 0 0 0 0 0 0 0 0 0 0 0 0 0 0 0 0.15 0"/>
<feBlend mode="normal" in2="effect1_dropShadow_227_2728" result="effect2_dropShadow_227_2728"/>
<feBlend mode="normal" in="SourceGraphic" in2="effect2_dropShadow_227_2728" result="shape"/>
</filter>
</defs>
</svg>
