<svg width="484" height="475" viewBox="0 0 484 475" fill="none" xmlns="http://www.w3.org/2000/svg">
<g filter="url(#filter0_d_227_2729)">
<path d="M42.0024 59C42.0024 47.402 51.4045 38 63.0024 38H421.002C432.6 38 442.002 47.402 442.002 59V408.542C442.002 425.839 422.262 435.719 408.416 425.352L50.4159 157.299C45.12 153.334 42.0024 147.105 42.0024 140.489V122.57C42.0024 117.441 43.8742 112.49 47.296 108.669C52.8879 102.426 60.9742 93.4999 61.5 93.4999C62.0182 93.4999 53.8665 84.9485 47.9432 78.8049C44.1414 74.8616 42.0024 69.6077 42.0024 64.1301V59Z" fill="#6D010C"/>
</g>
<defs>
<filter id="filter0_d_227_2729" x="0.83482" y="0.125788" width="482.335" height="473.915" filterUnits="userSpaceOnUse" color-interpolation-filters="sRGB">
<feFlood flood-opacity="0" result="BackgroundImageFix"/>
<feColorMatrix in="SourceAlpha" type="matrix" values="0 0 0 0 0 0 0 0 0 0 0 0 0 0 0 0 0 0 127 0" result="hardAlpha"/>
<feOffset dy="3.29341"/>
<feGaussianBlur stdDeviation="20.5838"/>
<feColorMatrix type="matrix" values="0 0 0 0 0.33651 0 0 0 0 0.356132 0 0 0 0 0.379167 0 0 0 0.1 0"/>
<feBlend mode="normal" in2="BackgroundImageFix" result="effect1_dropShadow_227_2729"/>
<feBlend mode="normal" in="SourceGraphic" in2="effect1_dropShadow_227_2729" result="shape"/>
</filter>
</defs>
</svg>
