<svg width="31" height="29" viewBox="0 0 31 29" fill="none" xmlns="http://www.w3.org/2000/svg">
<path d="M5.01197 10.0237H1.00241C0.448849 10.0237 0 10.4725 0 11.0261V27.0641C0 27.6177 0.448782 28.0665 1.00241 28.0665H5.0119C5.56546 28.0665 6.01431 27.6178 6.01431 27.0641V11.0261C6.01431 10.4725 5.56559 10.0237 5.01197 10.0237Z" fill="#6D010C"/>
<path d="M30.0515 12.6809C29.8747 11.1259 28.4222 10.0238 26.8572 10.0238H19.0424C19.7065 8.83459 20.063 5.47102 20.0472 4.097C20.021 1.82261 18.1375 0 15.863 0H15.0359C14.4819 0 14.0335 0.448316 14.0335 1.00241C14.0335 3.32035 13.1309 7.50418 11.4287 9.20647C10.283 10.3522 9.30349 10.7674 8.01917 11.4092V26.4499C9.9855 27.1053 12.4821 28.0667 16.2875 28.0667H22.8445C25.0051 28.0667 26.6877 26.0657 25.8505 23.9515C27.1261 23.604 28.0667 22.4342 28.0667 21.05C28.0667 20.6594 27.9913 20.2855 27.8553 19.9419C30.0048 19.3563 30.7959 16.7022 29.3041 15.0357C29.8522 14.4234 30.1544 13.5859 30.0515 12.6809Z" fill="#6D010C"/>
</svg>
